<svg xmlns="http://www.w3.org/2000/svg" viewBox="0 0 32 32"><path d="M28 3.5H4A2.5 2.5 0 0 0 1.5 6v20A2.5 2.5 0 0 0 4 28.5h24a2.5 2.5 0 0 0 2.5-2.5V6A2.5 2.5 0 0 0 28 3.5ZM29.5 26a1.5 1.5 0 0 1-1.5 1.5H4A1.5 1.5 0 0 1 2.5 26V8.5h27ZM2.5 7.5V6A1.5 1.5 0 0 1 4 4.5h24A1.5 1.5 0 0 1 29.5 6v1.5Zm25-1.5a.5.5 0 1 1-.5-.5.5.5 0 0 1 .5.5ZM26 6a.5.5 0 1 1-.5-.5.5.5 0 0 1 .5.5Zm-1.5 0a.5.5 0 1 1-.5-.5.5.5 0 0 1 .5.5ZM5 14.5h22a.5.5 0 0 0 .5-.5v-4a.5.5 0 0 0-.5-.5H5a.5.5 0 0 0-.5.5v4a.5.5 0 0 0 .5.5Zm.5-4h21v3h-21Zm-.5 10h22a.5.5 0 0 0 .5-.5v-4a.5.5 0 0 0-.5-.5H5a.5.5 0 0 0-.5.5v4a.5.5 0 0 0 .5.5Zm.5-4h21v3h-21Zm-.5 10h22a.5.5 0 0 0 .5-.5v-4a.5.5 0 0 0-.5-.5H5a.5.5 0 0 0-.5.5v4a.5.5 0 0 0 .5.5Zm.5-4h21v3h-21Z"/></svg>