<svg xmlns="http://www.w3.org/2000/svg" xml:space="preserve" style="fill-rule:evenodd;clip-rule:evenodd;stroke-linejoin:round;stroke-miterlimit:2" viewBox="0 0 64 64"><path d="M26.5 40.5V58c0 .796.316 1.559.879 2.121A2.996 2.996 0 0 0 29.5 61h28.041a3 3 0 0 0 3-3V45a1 1 0 0 0-2 0v13a.997.997 0 0 1-1 1H29.5a.997.997 0 0 1-1-1V40.5a1 1 0 0 0-2 0Zm7.041-5.5H5.5a1 1 0 0 1-1-1V22a1 1 0 0 0-2 0v12a3 3 0 0 0 3 3h25v19a1 1 0 0 0 1 1h24.041a1 1 0 0 0 1-1V31.959a1 1 0 0 0-1-1h-17a1 1 0 0 0 0 2h16V55H32.5V37h1.041a3 3 0 0 0 3-3v-5.041h21a.997.997 0 0 1 1 1V40a1 1 0 0 0 2 0V29.959c0-.796-.316-1.559-.878-2.122a3.004 3.004 0 0 0-2.122-.878h-21v-21a3 3 0 0 0-3-3H5.5a3 3 0 0 0-3 3V18a1 1 0 0 0 2 0V5.959a1 1 0 0 1 1-1h28.041a1 1 0 0 1 1 1V34a1 1 0 0 1-1 1Zm7.313 12.4h6.042l2.188 5.001a1 1 0 0 0 1.832-.802l-6.125-14a1 1 0 0 0-1.832 0l-6.125 14a1 1 0 0 0 1.832.802l2.188-5.001Zm.875-2h4.292l-2.146-4.905-2.146 4.905ZM32.541 7.959a1 1 0 0 0-1-1H7.5a1 1 0 0 0-1 1V32a1 1 0 0 0 1 1h24.041a1 1 0 0 0 1-1V7.959Zm-2 1V31H8.5V8.959h22.041Zm-5.85 18.146 1.602 1.602a1 1 0 0 0 1.414-1.414l-1.479-1.479a8.493 8.493 0 0 0 2.313-5.835c0-4.702-3.818-8.52-8.52-8.52-4.703 0-8.521 3.818-8.521 8.52 0 4.703 3.818 8.521 8.521 8.521a8.47 8.47 0 0 0 4.67-1.395Zm.122-2.706a6.494 6.494 0 0 0 1.728-4.42 6.524 6.524 0 0 0-6.52-6.52 6.524 6.524 0 0 0-6.521 6.52 6.524 6.524 0 0 0 9.737 5.673l-.944-.945a1 1 0 0 1 1.414-1.414l1.106 1.106Z"/></svg>