<svg xmlns="http://www.w3.org/2000/svg" xml:space="preserve" style="enable-background:new 0 0 100 100" viewBox="0 0 100 100"><path d="M92 4H32c-2.2 0-4 1.8-4 4v4h-4c-2.2 0-4 1.8-4 4v4h-4c-2.2 0-4 1.8-4 4v4H8c-2.2 0-4 1.8-4 4v60c0 2.2 1.8 4 4 4h60c2.2 0 4-1.8 4-4v-4h4c2.2 0 4-1.8 4-4v-4h4c2.2 0 4-1.8 4-4v-4h4c2.2 0 4-1.8 4-4V8c0-2.2-1.8-4-4-4zM30 8c0-1.1.9-2 2-2h60c1.1 0 2 .9 2 2v6h-6.6c-.7-1.2-2-2-3.4-2H30V8zm-8 8c0-1.1.9-2 2-2h60c1.1 0 2 .9 2 2v6h-6.6c-.7-1.2-2-2-3.4-2H22v-4zm-8 8c0-1.1.9-2 2-2h60c1.1 0 2 .9 2 2v6h-6.6c-.7-1.2-2-2-3.4-2H14v-4zm-6 6h60c1.1 0 2 .9 2 2v6H6v-6c0-1.1.9-2 2-2zm62 62c0 1.1-.9 2-2 2H8c-1.1 0-2-.9-2-2V40h64v52zm8-8c0 1.1-.9 2-2 2h-4V32h6v52zm8-8c0 1.1-.9 2-2 2h-4V24h6v52zm6-6h-4V16h6v52c0 1.1-.9 2-2 2z"/><circle cx="53" cy="34" r="2"/><circle cx="59" cy="34" r="2"/><circle cx="65" cy="34" r="2"/><circle cx="61" cy="26" r="2"/><circle cx="67" cy="26" r="2"/><circle cx="73" cy="26" r="2"/><circle cx="69" cy="18" r="2"/><circle cx="75" cy="18" r="2"/><circle cx="81" cy="18" r="2"/><circle cx="77" cy="10" r="2"/><circle cx="83" cy="10" r="2"/><circle cx="89" cy="10" r="2"/><path d="M12 55h52c1.7 0 3-1.3 3-3v-6c0-1.7-1.3-3-3-3H12c-1.7 0-3 1.3-3 3v6c0 1.7 1.3 3 3 3zm-1-9c0-.6.4-1 1-1h52c.6 0 1 .4 1 1v6c0 .6-.4 1-1 1H12c-.6 0-1-.4-1-1v-6zM36 69H12c-1.7 0-3 1.3-3 3v16c0 1.7 1.3 3 3 3h24c1.7 0 3-1.3 3-3V72c0-1.7-1.3-3-3-3zm1 19c0 .6-.4 1-1 1H12c-.6 0-1-.4-1-1V72c0-.6.4-1 1-1h24c.6 0 1 .4 1 1v16zM67 64H11c-.6 0-1 .4-1 1s.4 1 1 1h56c.6 0 1-.4 1-1s-.4-1-1-1zM67 59H11c-.6 0-1 .4-1 1s.4 1 1 1h56c.6 0 1-.4 1-1s-.4-1-1-1zM66 69H43c-.6 0-1 .4-1 1s.4 1 1 1h23c.6 0 1-.4 1-1s-.4-1-1-1zM66 74H43c-.6 0-1 .4-1 1s.4 1 1 1h23c.6 0 1-.4 1-1s-.4-1-1-1zM66 79H43c-.6 0-1 .4-1 1s.4 1 1 1h23c.6 0 1-.4 1-1s-.4-1-1-1zM66 84H43c-.6 0-1 .4-1 1s.4 1 1 1h23c.6 0 1-.4 1-1s-.4-1-1-1zM66 89H43c-.6 0-1 .4-1 1s.4 1 1 1h23c.6 0 1-.4 1-1s-.4-1-1-1z"/></svg>